<svg xmlns="http://www.w3.org/2000/svg" viewBox="0 0 32 32" fill="none">
  <defs>
    <clipPath id="hl">
      <rect x="0" y="0" width="16" height="32" />
    </clipPath>
    <clipPath id="hr">
      <rect x="16" y="0" width="16" height="32" />
    </clipPath>
    <linearGradient id="fg" x1="24" y1="27" x2="24" y2="8" gradientUnits="userSpaceOnUse">
      <stop stop-color="oklch(0.62 0.22 35)"/>
      <stop offset="0.55" stop-color="oklch(0.72 0.19 55)"/>
      <stop offset="1" stop-color="oklch(0.88 0.14 85)"/>
    </linearGradient>
  </defs>

  <rect width="32" height="32" rx="8" fill="oklch(0.17 0.04 252)" stroke="oklch(1 0 0 / 0.12)" stroke-width="0.75"/>
  <line x1="16" y1="5" x2="16" y2="27" stroke="oklch(1 0 0 / 0.18)" stroke-width="1"/>

  <g clip-path="url(#hl)">
    <g transform="translate(8 16)" stroke="oklch(0.92 0.04 252)" stroke-width="1.4" stroke-linecap="round">
      <g>
        <line x1="0" y1="-7" x2="0" y2="7"/>
        <line x1="0" y1="-4.2" x2="-2.2" y2="-5.6"/>
        <line x1="0" y1="-4.2" x2="2.2" y2="-5.6"/>
      </g>
      <g transform="rotate(60)">
        <line x1="0" y1="-7" x2="0" y2="7"/>
        <line x1="0" y1="-4.2" x2="-2.2" y2="-5.6"/>
        <line x1="0" y1="-4.2" x2="2.2" y2="-5.6"/>
      </g>
      <g transform="rotate(120)">
        <line x1="0" y1="-7" x2="0" y2="7"/>
        <line x1="0" y1="-4.2" x2="-2.2" y2="-5.6"/>
        <line x1="0" y1="-4.2" x2="2.2" y2="-5.6"/>
      </g>
      <g transform="rotate(180)">
        <line x1="0" y1="-7" x2="0" y2="7"/>
        <line x1="0" y1="-4.2" x2="-2.2" y2="-5.6"/>
        <line x1="0" y1="-4.2" x2="2.2" y2="-5.6"/>
      </g>
      <g transform="rotate(240)">
        <line x1="0" y1="-7" x2="0" y2="7"/>
        <line x1="0" y1="-4.2" x2="-2.2" y2="-5.6"/>
        <line x1="0" y1="-4.2" x2="2.2" y2="-5.6"/>
      </g>
      <g transform="rotate(300)">
        <line x1="0" y1="-7" x2="0" y2="7"/>
        <line x1="0" y1="-4.2" x2="-2.2" y2="-5.6"/>
        <line x1="0" y1="-4.2" x2="2.2" y2="-5.6"/>
      </g>
    </g>
  </g>

  <g clip-path="url(#hr)">
    <path
      d="M24 26.5C19.5 22.5 18 17 20.5 12.5C21.4 11 22.6 9.5 24 8C25.4 9.5 26.6 11 27.5 12.5C30 17 28.5 22.5 24 26.5Z"
      fill="url(#fg)"
    />
    <path
      d="M24 24.8C21.5 21.5 20.8 17.8 22.6 14.2C23.2 13.2 24 12.2 24 12.2C24 12.2 24.8 13.2 25.4 14.2C27.2 17.8 26.5 21.5 24 24.8Z"
      fill="oklch(0.95 0.08 85)"
      opacity="0.95"
    />
  </g>
</svg>
