<svg xmlns="http://www.w3.org/2000/svg" viewBox="0 0 48 48" fill="none" role="img" aria-label="PRO-KLIMAT">
  <defs>
    <clipPath id="half-left">
      <rect x="0" y="0" width="24" height="48" />
    </clipPath>
    <clipPath id="half-right">
      <rect x="24" y="0" width="24" height="48" />
    </clipPath>
    <linearGradient id="flame-grad" x1="36" y1="40" x2="36" y2="10" gradientUnits="userSpaceOnUse">
      <stop stop-color="oklch(0.62 0.22 35)"/>
      <stop offset="0.55" stop-color="oklch(0.72 0.19 55)"/>
      <stop offset="1" stop-color="oklch(0.88 0.14 85)"/>
    </linearGradient>
  </defs>

  <rect width="48" height="48" rx="12" fill="oklch(0.17 0.04 252)" stroke="oklch(1 0 0 / 0.12)" stroke-width="1"/>
  <line x1="24" y1="7" x2="24" y2="41" stroke="oklch(1 0 0 / 0.18)" stroke-width="1.25"/>

  <!-- LEWA POŁOWA: śnieżynka -->
  <g clip-path="url(#half-left)">
    <g transform="translate(12 24)" stroke="oklch(0.92 0.04 252)" stroke-width="2.1" stroke-linecap="round">
      <g>
        <line x1="0" y1="-10" x2="0" y2="10"/>
        <line x1="0" y1="-6" x2="-3.2" y2="-8.2"/>
        <line x1="0" y1="-6" x2="3.2" y2="-8.2"/>
        <line x1="0" y1="-6" x2="-3.2" y2="-3.8"/>
        <line x1="0" y1="-6" x2="3.2" y2="-3.8"/>
      </g>
      <g transform="rotate(60)">
        <line x1="0" y1="-10" x2="0" y2="10"/>
        <line x1="0" y1="-6" x2="-3.2" y2="-8.2"/>
        <line x1="0" y1="-6" x2="3.2" y2="-8.2"/>
        <line x1="0" y1="-6" x2="-3.2" y2="-3.8"/>
        <line x1="0" y1="-6" x2="3.2" y2="-3.8"/>
      </g>
      <g transform="rotate(120)">
        <line x1="0" y1="-10" x2="0" y2="10"/>
        <line x1="0" y1="-6" x2="-3.2" y2="-8.2"/>
        <line x1="0" y1="-6" x2="3.2" y2="-8.2"/>
        <line x1="0" y1="-6" x2="-3.2" y2="-3.8"/>
        <line x1="0" y1="-6" x2="3.2" y2="-3.8"/>
      </g>
      <g transform="rotate(180)">
        <line x1="0" y1="-10" x2="0" y2="10"/>
        <line x1="0" y1="-6" x2="-3.2" y2="-8.2"/>
        <line x1="0" y1="-6" x2="3.2" y2="-8.2"/>
        <line x1="0" y1="-6" x2="-3.2" y2="-3.8"/>
        <line x1="0" y1="-6" x2="3.2" y2="-3.8"/>
      </g>
      <g transform="rotate(240)">
        <line x1="0" y1="-10" x2="0" y2="10"/>
        <line x1="0" y1="-6" x2="-3.2" y2="-8.2"/>
        <line x1="0" y1="-6" x2="3.2" y2="-8.2"/>
        <line x1="0" y1="-6" x2="-3.2" y2="-3.8"/>
        <line x1="0" y1="-6" x2="3.2" y2="-3.8"/>
      </g>
      <g transform="rotate(300)">
        <line x1="0" y1="-10" x2="0" y2="10"/>
        <line x1="0" y1="-6" x2="-3.2" y2="-8.2"/>
        <line x1="0" y1="-6" x2="3.2" y2="-8.2"/>
        <line x1="0" y1="-6" x2="-3.2" y2="-3.8"/>
        <line x1="0" y1="-6" x2="3.2" y2="-3.8"/>
      </g>
    </g>
    <circle cx="12" cy="24" r="2.2" fill="oklch(0.96 0.01 252)"/>
  </g>

  <!-- PRAWA POŁOWA: ogień -->
  <g clip-path="url(#half-right)">
    <path
      d="M36 39.5C29.5 33.5 27.5 26 31.5 19.5C32.8 17.2 34.5 14.5 36 12.5C37.5 14.5 39.2 17.2 40.5 19.5C44.5 26 42.5 33.5 36 39.5Z"
      fill="url(#flame-grad)"
    />
    <path
      d="M36 37.5C32 32.5 31 26.5 34 21.5C35 19.8 36 18 36 18C36 18 37 19.8 38 21.5C41 26.5 40 32.5 36 37.5Z"
      fill="oklch(0.95 0.08 85)"
      opacity="0.95"
    />
    <path
      d="M36 35C34.2 31.5 33.8 27.5 35.5 24C36.1 23 36 22.2 36 22.2C36 22.2 35.9 23 36.5 24C38.2 27.5 37.8 31.5 36 35Z"
      fill="oklch(0.98 0.04 95)"
    />
  </g>
</svg>
